# xmcd
#
# Track frame offsets: 
#        150
#        13842
#        29105
#        53037
#        68295
#        79050
#        91680
#        102232
#        117465
#        129340
#
# Disc length: 1876 seconds
#
# Revision: 2
# Processed by: cddbd v1.5.2PL0 Copyright (c) Steve Scherf et al.
# Submitted via: ExactAudioCopyFreeDBPlugin 1.0
#
DISCID=7807520a
DTITLE=David Allan Coe - Greatest Hits
DYEAR=1978
DGENRE=Country
TTITLE0=Divers Do It Deeper
TTITLE1=Long Haired Redneck
TTITLE2=You Never Even Called Me By My Name
TTITLE3=Willie, Waylon, And Me
TTITLE4=A Sad Country Song
TTITLE5=Would You Be My Lady
TTITLE6=Just To Prove My Love For You
TTITLE7=Lately I've Been Thinking Too Much Lately
TTITLE8=Would You Lay With Me (In A Field Of Stone)
TTITLE9=Face To Face
EXTD=
EXTT0=
EXTT1=
EXTT2=
EXTT3=
EXTT4=
EXTT5=
EXTT6=
EXTT7=
EXTT8=
EXTT9=
PLAYORDER=
